<svg id="Capa_1" data-name="Capa 1" xmlns="http://www.w3.org/2000/svg" viewBox="0 0 400 400"><path d="M324.13,168.93c.12-1.39.19-2.77.19-4.15a47.31,47.31,0,0,0-47.26-47.24,46.65,46.65,0,0,0-24.83,7.07c-4.6-26.89-29.24-47-58.09-45.43-27.46,1.36-49.21,21.46-52.77,47.24a45.33,45.33,0,0,0-15.29-2.67A47.3,47.3,0,0,0,78.84,171c0,.56,0,1.12.06,1.72-13.2,3.59-32.12,11.22-32.1,38.2,0,20.05,16.69,37.26,39.39,38.34l7-10.72c-.82,0-1.76,0-2.41.07l-1.69,0c-17.22,0-31.23-12.45-31.24-27.75,0-18.22,9.92-24.13,28.3-28.69l4.13-1.58.12-4.17-.21-2.24a24.54,24.54,0,0,1-.31-3.23,36.3,36.3,0,0,1,36.25-36.25,35.7,35.7,0,0,1,17.61,4.77l8.34,4.67-.17-9.56c-.41-23.72,18.42-43.25,42.83-44.46l2.38-.07c24,0,43.71,18.2,44.87,41.46a34.82,34.82,0,0,1-.12,3.79l-.5,14.13,9.93-10.09a35.93,35.93,0,0,1,25.81-10.86,36.31,36.31,0,0,1,36.27,36.25,36.81,36.81,0,0,1-.74,7.24l-1.11,5.53,5.54,1c14.16,2.48,24.5,13.45,25.15,26.67s-8.49,28.36-22.35,32.73l3.66,10.23c17.52-5.82,30.65-23.92,29.67-43.5C352.33,188,340.67,173.91,324.13,168.93Z"/><path d="M145.08,292h0c-18.25-24.43-17-66.52-17.89-53-2.29,35.18-16.16,53-16.16,53h0a15.44,15.44,0,0,0-1.8,7.21c0,9.32,8.41,16.87,18.82,16.87s18.83-7.55,18.83-16.87A15.22,15.22,0,0,0,145.08,292Z"/><path d="M203,258.89h0c-15.94-21.35-14.89-58.09-15.64-46.33-2,30.73-14.09,46.33-14.09,46.33h0a13.49,13.49,0,0,0-1.6,6.28c0,8.13,7.37,14.73,16.44,14.73s16.46-6.6,16.46-14.73A13.6,13.6,0,0,0,203,258.89Z"/><path d="M247.89,301.67h0c-14.58-19.53-13.59-53.17-14.31-42.39-1.81,28.11-12.89,42.39-12.89,42.39h0a12.21,12.21,0,0,0-1.45,5.76c0,7.44,6.72,13.48,15.06,13.48s15-6,15-13.48A12.33,12.33,0,0,0,247.89,301.67Z"/><path d="M266,244.32h0c-9.16-12.28-8.55-33.45-9-26.67-1.16,17.69-8.12,26.67-8.12,26.67h0a7.55,7.55,0,0,0-.92,3.62c0,4.7,4.24,8.5,9.48,8.5s9.47-3.8,9.47-8.5A7.55,7.55,0,0,0,266,244.32Z"/></svg>