<svg id="Capa_1" data-name="Capa 1" xmlns="http://www.w3.org/2000/svg" viewBox="0 0 400 400"><path d="M325,144.46c.11-1.4.18-2.79.18-4.18a47.62,47.62,0,0,0-47.57-47.56,47,47,0,0,0-25,7.12C248,72.75,223.15,52.49,194.1,54.09c-27.64,1.37-49.56,21.6-53.14,47.56A45.88,45.88,0,0,0,125.56,99,47.62,47.62,0,0,0,78,146.54c0,.58,0,1.13.06,1.74-13.28,3.62-32.36,11.3-32.32,38.47,0,20.19,16.8,37.53,39.67,38.6l7-10.8-2.42.08-1.7,0c-17.35,0-31.47-12.54-31.48-27.92,0-18.36,10-24.31,28.49-28.9l4.16-1.59.12-4.21-.2-2.24a23.66,23.66,0,0,1-.31-3.27,36.55,36.55,0,0,1,36.5-36.49,36,36,0,0,1,17.72,4.79l8.42,4.72-.17-9.64c-.41-23.88,18.53-43.55,43.12-44.78l2.39,0c24.19,0,44,18.31,45.19,41.75,0,.83,0,1.67-.12,3.8l-.49,14.23,10-10.15a36.48,36.48,0,0,1,62.52,25.56,36.59,36.59,0,0,1-.75,7.3l-1.12,5.56,5.59,1c14.26,2.49,24.67,13.53,25.32,26.84s-8.53,28.56-22.52,33l3.7,10.3c17.63-5.86,30.86-24.09,29.88-43.8C353.39,163.64,341.64,149.48,325,144.46Z"/><path d="M108.33,247.5h3.2v-3.15h-3.2Zm12.49,4.27,2.27,2.24,2.27-2.24-2.27-2.28Zm-17-21.31-2.25,2.29,2.27,2.22,2.24-2.22Zm30.84,17h3.21v-3.15h-3.21Zm-23.33-29.79h-3.18v3.18h3.18Zm26.77,0h-3.2v3.18h3.2Zm-12.85-4.38L123,211.07l-2.27,2.26,2.27,2.26Zm15.81,24.17-2-4.9,2-4.65-3.75,3.91h-6.12l2.22-3.42-3.93-.74,4.32-4.39h5.32l-4.86-1.77-1.85-4.87v5.4l-4.24,4.42-.64-4.2L124,224.68v-6l3.86-4-4.6,2.29-4.81-2.11,3.86,3.83v6l-3.59-2.15-.59,4-4.33-4.42v-5.4l-1.69,4.87-5,1.93h5.39l4.32,4.23-4.43,1,2.73,3.19H109L105.17,228l1.85,4.8-1.85,4.75,3.84-4h6.12L112.4,237l4.43.7-4.32,4.31h-5.39l5,1.74,1.63,4.81.06-5.3,4.16-4.17.76,4.29,3.59-2.66v6.13l-3.86,3.76,4.7-2.07,4.6,2.07L124,246.89v-6.13l3.53,2.41.64-4.2,4.32,4.33.09,5.3,1.56-4.7,5-1.85h-5.32l-4.32-4.15,4.17-1.22-2.46-3.2h6.12Zm-22.61-8.08,2.63,2.44h-3.52Zm.18,6.72-1.07-2.66h3.52Zm3.68,2.17-2.38-1,2.38-2.6Zm0-7.68L120,228.19l2.38-1.06Zm5.44-1.21.92,2.44h-3.52Zm-3.66-2.29,2.52,1.06-2.52,2.44Zm0,11.26v-3.66l2.52,2.43Zm3.52-2.25-2.46-2.66h3.75Zm14.46-5.74-2.26,2.24,2.26,2.26,2.28-2.26Z"/><path d="M236.91,230.49h4.16v-4.1h-4.16ZM253.12,236l2.93,2.89,3-2.89-3-3Zm-22-27.63-2.92,3,3,2.88,2.89-2.88Zm40,22.11h4.16v-4.1h-4.16Zm-30.26-38.66h-4.12V196h4.12Zm34.72,0H271.4V196h4.15Zm-16.67-5.67-2.95-2.92L253,186.16l2.93,2.94Zm20.51,31.35-2.66-6.37,2.66-6-4.87,5.08h-7.93l2.86-4.46-5.09-.95,5.62-5.69h6.89l-6.32-2.3-2.39-6.31v7l-5.48,5.72-.84-5.43-4.57,3.12v-7.73l5-5.21-6,3-6.23-2.74,5,5v7.73l-4.63-2.81-.78,5.12L244,197.49v-7l-2.19,6.31-6.5,2.51h7l5.6,5.48-5.75,1.26,3.54,4.15H237.8l-5-5.08,2.41,6.21-2.41,6.17,5-5.22h7.93l-3.54,4.61,5.75.91-5.6,5.6h-7l6.5,2.25,2.1,6.25L244,225l5.4-5.4,1,5.58,4.63-3.45v7.94l-5,4.88,6.07-2.68,6,2.68-4.87-4.88v-7.94l4.57,3.11.84-5.42,5.58,5.58.12,6.9,2-6.09,6.46-2.41H270L264.36,218l5.41-1.59-3.18-4.15h7.93ZM250.07,207l3.39,3.17h-4.55Zm.22,8.68-1.38-3.43h4.55Zm4.77,2.85L252,217.29l3.08-3.39Zm0-10L252,205.42l3.08-1.36Zm7.08-1.56,1.18,3.17h-4.58Zm-4.75-3,3.26,1.36-3.26,3.18Zm0,14.6V213.9l3.26,3.18Zm4.55-2.94-3.2-3.43h4.88Zm18.76-7.43-2.95,2.91,2.95,2.92,2.94-2.92Z"/><path d="M137.27,337.58h4.18v-4.11h-4.18Zm16.22,5.51,2.94,2.91,2.95-2.91-2.95-2.94Zm-22-27.62-2.92,2.95,2.95,2.89,2.91-2.89Zm40,22.11h4.15v-4.11h-4.15ZM141.2,298.91h-4.12v4.16h4.12Zm34.72,0h-4.15v4.16h4.15Zm-16.67-5.67-2.95-2.91-2.93,2.91,2.93,2.94Zm20.52,31.36-2.67-6.37,2.67-6-4.88,5.07H167l2.86-4.46-5.09-.95,5.61-5.7h6.89l-6.32-2.29-2.38-6.32v7L163,310.3l-.84-5.44L157.62,308v-7.72l5-5.21-6,3-6.23-2.73,5,5V308l-4.64-2.81L150,310.3l-5.61-5.72v-7l-2.19,6.32-6.5,2.51h7l5.6,5.48-5.76,1.26,3.53,4.15h-7.93l-5-5.07,2.41,6.19-2.41,6.18,5-5.22h7.93L142.56,324l5.76.89-5.6,5.6h-7l6.5,2.25,2.09,6.25.1-6.91,5.4-5.39,1,5.58,4.64-3.45v7.95l-5,4.86,6.09-2.67,6,2.67-4.89-4.86v-7.95l4.58,3.11.84-5.43,5.59,5.58.12,6.91,2-6.1,6.45-2.4h-6.89l-5.61-5.38,5.41-1.59L167,319.38h7.93Zm-29.33-10.48,3.39,3.18h-4.56Zm.22,8.69-1.39-3.43h4.56Zm4.77,2.85-3.08-1.27,3.08-3.39Zm0-10-3.08-3.17,3.08-1.36Zm7.08-1.56,1.17,3.18H159.1Zm-4.75-3,3.25,1.36-3.25,3.17Zm0,14.6V321l3.25,3.17Zm4.54-2.94-3.2-3.43H164Zm18.76-7.43-2.94,2.9,2.94,2.93,2.95-2.93Z"/><path d="M202.77,284.5h2.9v-2.86h-2.9ZM214,288.3l2,2,2-2-2-2Zm-15.31-19.17-2,2.06,2,2,2-2Zm27.8,15.37h2.89v-2.86h-2.89Zm-21-26.85h-2.88v2.87h2.88Zm24.12,0h-2.89v2.87h2.89ZM218,253.7l-2-2-2,2,2,2Zm14.26,21.77-1.85-4.42,1.85-4.17-3.38,3.51H223.4l2-3.08-3.53-.67,3.9-3.95h4.79l-4.4-1.6-1.66-4.38v4.86l-3.81,4-.59-3.77-3.17,2.15v-5.36l3.47-3.61L216.25,257l-4.33-1.9,3.46,3.45v5.36L212.16,262l-.53,3.56-3.9-4v-4.86l-1.51,4.38-4.53,1.74h4.87l3.88,3.81-4,.88,2.45,2.87h-5.51l-3.45-3.51,1.66,4.31-1.66,4.28,3.45-3.62h5.51l-2.45,3.2,4,.64-3.88,3.88h-4.87l4.53,1.56,1.45,4.34.06-4.79,3.75-3.74.68,3.87,3.22-2.41v5.53l-3.46,3.37,4.23-1.84,4.15,1.84-3.38-3.37V278.4l3.17,2.18.59-3.77,3.87,3.87.08,4.79,1.41-4.23,4.51-1.67h-4.79l-3.9-3.74,3.75-1.1-2.21-2.88h5.51Zm-20.37-7.27,2.36,2.19h-3.17Zm.16,6-1-2.37h3.17Zm3.3,2-2.14-.87,2.14-2.35Zm0-6.92-2.14-2.19,2.14-.95Zm4.92-1.07.82,2.19h-3.18Zm-3.3-2.07,2.26.95L217,269.27Zm0,10.15V273l2.26,2.2Zm3.17-2.06-2.23-2.37h3.39Zm13-5.15-2,2,2,2,2-2Z"/><path d="M174.34,228.42h2v-2h-2Zm7.93,2.69,1.44,1.43,1.44-1.43-1.44-1.43ZM171.5,217.62l-1.43,1.44,1.44,1.41,1.41-1.41Zm19.56,10.8h2v-2h-2Zm-14.8-18.89h-2v2h2Zm17,0h-2v2h2Zm-8.14-2.78-1.45-1.42-1.42,1.42,1.42,1.43Zm10,15.33-1.3-3.12,1.3-2.93-2.4,2.48h-3.86l1.39-2.18-2.49-.47,2.75-2.78h3.38l-3.1-1.13-1.17-3.07v3.41l-2.68,2.8-.41-2.66L184.3,214v-3.77l2.44-2.55-2.92,1.46-3-1.34,2.44,2.43V214L181,212.59l-.37,2.5-2.75-2.8v-3.41L176.76,212l-3.18,1.24H177l2.73,2.67-2.81.62,1.73,2h-3.88L172.33,216l1.18,3-1.18,3,2.45-2.56h3.88l-1.73,2.26,2.81.45L177,225h-3.43l3.18,1.08,1,3.06,0-3.37,2.64-2.63.48,2.73,2.27-1.69V228l-2.44,2.37,3-1.3,2.93,1.3L184.3,228v-3.89l2.23,1.53.41-2.67,2.73,2.73.07,3.37,1-3,3.17-1.17h-3.38l-2.75-2.63,2.66-.79-1.56-2h3.86ZM180.78,217l1.66,1.55h-2.23Zm.11,4.24-.68-1.68h2.23Zm2.33,1.39-1.5-.61,1.5-1.65Zm0-4.88-1.5-1.54,1.5-.66Zm3.46-.75.57,1.55H185Zm-2.33-1.45,1.59.66-1.59,1.54Zm0,7.13v-2.31l1.59,1.54Zm2.24-1.44L185,219.52h2.39Zm9.17-3.62-1.44,1.4,1.44,1.44,1.43-1.44Z"/><path d="M260.79,288.36h2.32v-2.29h-2.32Zm9.06,3.08,1.63,1.62,1.64-1.62-1.64-1.65ZM257.53,276l-1.62,1.65,1.63,1.6,1.64-1.6Zm22.33,12.34h2.33v-2.29h-2.33ZM263,266.78h-2.31v2.31H263Zm19.38,0H280v2.31h2.32ZM273,263.6,271.4,262l-1.63,1.61,1.63,1.65Zm11.46,17.51L283,277.56l1.49-3.36L281.78,277h-4.43l1.61-2.48L276.1,274l3.13-3.19h3.86l-3.53-1.27L278.22,266v3.9l-3.05,3.2-.47-3.05-2.55,1.74v-4.3l2.77-2.92-3.31,1.67-3.48-1.53,2.79,2.78v4.3l-2.59-1.55-.43,2.86-3.14-3.2V266l-1.21,3.52L259.91,271h3.9l3.13,3.07-3.21.71,2,2.31h-4.43l-2.77-2.84,1.33,3.47-1.33,3.44,2.77-2.9h4.43l-2,2.56,3.21.51-3.13,3.11h-3.9l3.64,1.26,1.17,3.5,0-3.85,3-3,.55,3.12,2.59-1.94v4.44l-2.79,2.71,3.41-1.49,3.32,1.49-2.71-2.71v-4.44l2.55,1.75.47-3.05,3.12,3.13.06,3.85,1.13-3.41,3.61-1.35h-3.86l-3.13-3,3-.87-1.78-2.31h4.43Zm-16.37-5.85L270,277h-2.55Zm.12,4.86-.77-1.91H270Zm2.67,1.58-1.73-.7,1.73-1.9Zm0-5.56-1.73-1.78,1.73-.75Zm3.94-.88.67,1.78H273Zm-2.64-1.65,1.81.75-1.81,1.78Zm0,8.16V279.1l1.81,1.77Zm2.53-1.65L273,278.21h2.74ZM285.22,276l-1.64,1.62,1.64,1.65,1.64-1.65Z"/></svg>