<svg id="Capa_1" data-name="Capa 1" xmlns="http://www.w3.org/2000/svg" viewBox="0 0 400 400"><path d="M216.6,106.85a88.59,88.59,0,0,1-20.53,158.94,91.59,91.59,0,0,1-12.15,2.91A88.58,88.58,0,1,0,216.6,106.85Z"/><polygon points="141.01 290.97 118.51 281.39 97.83 294.45 100.04 270.09 81.22 254.47 105.08 249.07 114.08 226.31 126.65 247.29 151.05 248.87 134.97 267.3 141.01 290.97"/><polygon points="127.29 179.5 109.37 171.87 92.94 182.27 94.68 162.9 79.7 150.45 98.68 146.16 105.85 128.05 115.85 144.72 135.26 145.99 122.48 160.67 127.29 179.5"/><polygon points="207.76 209.04 192.34 202.49 178.21 211.41 179.69 194.75 166.82 184.04 183.15 180.37 189.31 164.79 197.91 179.16 214.62 180.23 203.62 192.85 207.76 209.04"/></svg>