<svg id="Capa_1" data-name="Capa 1" xmlns="http://www.w3.org/2000/svg" viewBox="0 0 400 400"><path d="M340.39,181.74q.06-1,.06-2a34.9,34.9,0,0,0-51.66-30.6c-4-18.18-20.5-31.64-40.16-31.64l-2.14.06a40.77,40.77,0,0,0-36.73,27.13,50.85,50.85,0,0,0-39.1-15.4c-24.5,1.22-43.94,19.07-47.27,42A40.76,40.76,0,0,0,110,169,42.47,42.47,0,0,0,67.56,211.4c0,.44,0,.87,0,1.33C55.77,216,39,222.87,39,247c0,19.2,17,34.81,38,34.81l2,0c13-.67,66.92,0,66.93,0l0-.89.28,0,.05.84V281c7.16,1,23.76,1,62.37,1.08,0,0,29,.49,50.1.49,7.94,0,14.76-.07,18.53-.27,19.78-1,36.24-19.77,35.51-40.34h3.74c6.5,0,12.09-.07,15.15-.22a29.91,29.91,0,0,0,21.59-11.21A33.06,33.06,0,0,0,361,208C360.38,195.93,352.16,185.69,340.39,181.74Zm-38,60.17c.68,13.53-10.16,29.24-25.66,30-13.66.67-67.9-.25-68-.24-24.06-.05-60.55-.14-62.49-.22l-.13,2.36-.05-2.37s-24.92-.32-45.07-.32c-9.68,0-18.26.08-22.52.29l-1.49,0c-15.21,0-27.58-11-27.59-24.46,0-16.07,8.77-21.29,25-25.3l3.89-1.61.12-3.93-.2-1.95a21.57,21.57,0,0,1-.27-2.81,32.09,32.09,0,0,1,32.06-32,31.54,31.54,0,0,1,15.55,4.22l7.88,4.4-.16-9c-.36-21,16.3-38.29,37.92-39.36l2.12-.06a40.31,40.31,0,0,1,26.34,9.7,38.49,38.49,0,0,1,9.72,12.56A37.65,37.65,0,0,1,213,176.27c0,.74,0,1.47-.1,3.33l-.5,13.35,9.38-9.53a32,32,0,0,1,54.87,22.44,32.84,32.84,0,0,1-.65,6.4l-1,5.21,5.24.92a27.08,27.08,0,0,1,19.05,13.07,23.51,23.51,0,0,1,3.13,10.4Zm42.87-18a19.73,19.73,0,0,1-14.13,7.48c-3.86.19-11.79.23-20.41.19a36.43,36.43,0,0,0-23.83-22.19c.1-1.16.15-2.31.15-3.5a42.46,42.46,0,0,0-42.42-42.4,42,42,0,0,0-22,6.12,47.15,47.15,0,0,0-3.47-11.06c-.36-.82-.87-1.56-1.28-2.35.81-15.23,13.14-27.5,29.08-28.3l1.63,0c16.41,0,29.87,12.42,30.67,28.25,0,.59,0,1.17-.07,2.59l-.54,13.4,9.4-9.55a24.5,24.5,0,0,1,42,17.18,24.68,24.68,0,0,1-.49,4.9l-1,5.21,5.23.92c9.49,1.66,16.41,9,16.84,17.8A22.76,22.76,0,0,1,345.26,223.88Z"/></svg>