<svg id="Capa_1" data-name="Capa 1" xmlns="http://www.w3.org/2000/svg" viewBox="0 0 400 400"><path d="M217.62,335c-14.3-19.11-13.34-52.07-14-41.51C201.81,321,191,335,191,335a12.2,12.2,0,0,0-1.42,5.65c0,7.28,6.6,13.2,14.74,13.2S219,347.88,219,340.6a12,12,0,0,0-1.44-5.65Z"/><path d="M292.48,90.89a42.71,42.71,0,0,0-36.64,64.76,46.09,46.09,0,0,0-34,5.89c-4.5-26.33-28.63-46-56.9-44.49-26.89,1.34-48.2,21-51.69,46.26a44.41,44.41,0,0,0-15-2.61A46.33,46.33,0,0,0,52,207c0,.55,0,1.09.08,1.68-12.94,3.52-31.48,11-31.44,37.42,0,19.64,16.33,36.5,38.57,37.55L66,273.12c-.81,0-1.74.05-2.36.09l-1.65,0c-16.87,0-30.61-12.2-30.62-27.17,0-17.86,9.73-23.65,27.73-28.12l4-1.54.12-4.08-.2-2.19a24,24,0,0,1-.31-3.17,35.55,35.55,0,0,1,35.52-35.51,35,35,0,0,1,17.23,4.67l8.17,4.58-.15-9.36c-.41-23.24,18-42.36,41.93-43.55l2.33-.06c23.52,0,42.83,17.82,44,40.6a35.13,35.13,0,0,1-.11,3.71l-.48,13.83,9.71-9.88A35.47,35.47,0,0,1,281,208l-1.09,5.41,5.44,1c13.87,2.42,24,13.17,24.62,26.12s-8.31,27.78-21.89,32l3.59,10c17.15-5.7,30-23.42,29.06-42.6-.81-16.34-12.22-30.11-28.43-35,.13-1.35.2-2.72.2-4.07A45.92,45.92,0,0,0,285,175.76a42.77,42.77,0,1,0,7.49-84.87Zm0,78.11a35.33,35.33,0,1,1,35.32-35.33A35.35,35.35,0,0,1,292.48,169Z"/><path d="M254.71,100.31a3,3,0,1,0,4.46-3.91L237.06,71.12A3,3,0,0,0,232.57,75Z"/><path d="M292.63,85.72a2.94,2.94,0,0,0,2.93-3l-.23-33.58a3,3,0,1,0-5.93,0l.23,33.58A3,3,0,0,0,292.63,85.72Z"/><path d="M207.74,128.72l33.45,2.73a3,3,0,0,0,.49-5.94l-33.47-2.73a3,3,0,0,0-.47,5.94Z"/><path d="M369.06,174l-29.72-15.62a3,3,0,1,0-2.77,5.26l29.71,15.63a3,3,0,0,0,2.78-5.27Z"/><path d="M376,117.58l-33.34,3.9a3,3,0,0,0,.68,5.91l33.36-3.91a3,3,0,1,0-.7-5.9Z"/><path d="M306.54,177.58a3,3,0,0,0-1.82,3.79L315.89,213a3,3,0,1,0,5.6-2l-11.16-31.68A3,3,0,0,0,306.54,177.58Z"/><path d="M327,97.22l20.66-26.45a3,3,0,0,0-.5-4.17,3,3,0,0,0-4.19.52L322.3,93.58A3,3,0,1,0,327,97.22Z"/><path d="M116.93,325.53c-17.87-23.93-16.68-65.16-17.53-52-2.24,34.47-15.82,52-15.82,52a15.17,15.17,0,0,0-1.78,7.05c0,9.12,8.26,16.53,18.45,16.53s18.45-7.41,18.45-16.53a14.83,14.83,0,0,0-1.8-7.05Z"/><path d="M173.66,293.05c-15.59-20.9-14.55-56.88-15.3-45.36-2,30.09-13.81,45.36-13.81,45.36a13.16,13.16,0,0,0-1.55,6.17c0,8,7.2,14.42,16.11,14.42s16.11-6.46,16.11-14.42a13.3,13.3,0,0,0-1.57-6.17Z"/><path d="M226.52,252.66c-1.14,17.34-8,26.14-8,26.14a7.56,7.56,0,0,0-.9,3.54c0,4.59,4.15,8.32,9.29,8.32s9.26-3.73,9.26-8.32a7.44,7.44,0,0,0-.89-3.54C226.34,266.76,227,246,226.52,252.66Z"/></svg>