<svg id="Capa_1" data-name="Capa 1" xmlns="http://www.w3.org/2000/svg" viewBox="0 0 400 400"><path d="M200.47,271.55a66.76,66.76,0,1,1,66.76-66.76A66.83,66.83,0,0,1,200.47,271.55Zm0-121.88a55.12,55.12,0,1,0,55.12,55.12A55.17,55.17,0,0,0,200.47,149.67Z"/><path d="M148.49,146.61a4.65,4.65,0,0,1-.42,6.55h0a4.65,4.65,0,0,1-6.55-.43L107,113.29a4.65,4.65,0,0,1,.43-6.54h0a4.64,4.64,0,0,1,6.55.43Z"/><path d="M205.29,125.29A4.62,4.62,0,0,1,200.7,130h0a4.63,4.63,0,0,1-4.68-4.61L195.65,73a4.64,4.64,0,0,1,4.59-4.68h0a4.63,4.63,0,0,1,4.68,4.62Z"/><path d="M121.21,192.05a4.64,4.64,0,0,1,4.24,5h0a4.64,4.64,0,0,1-5,4.25l-52.23-4.25a4.64,4.64,0,0,1-4.24-5h0a4.66,4.66,0,0,1,5-4.27Z"/><path d="M129.62,241.69a4.63,4.63,0,0,1,6.4,1.44h0a4.64,4.64,0,0,1-1.44,6.4l-44.3,28a4.61,4.61,0,0,1-6.39-1.44h0a4.62,4.62,0,0,1,1.44-6.4Z"/><path d="M169.19,276.22a4.65,4.65,0,0,1,6-2.71h0a4.67,4.67,0,0,1,2.72,6l-18.47,49a4.64,4.64,0,0,1-6,2.7h0a4.63,4.63,0,0,1-2.73-6Z"/><path d="M269.28,251.51a4.62,4.62,0,0,1-1.95-6.26h0a4.61,4.61,0,0,1,6.26-1.94L320,267.69a4.61,4.61,0,0,1,1.94,6.25h0a4.64,4.64,0,0,1-6.28,2Z"/><path d="M279.89,195a4.63,4.63,0,0,1-5.14-4.05h0a4.63,4.63,0,0,1,4.07-5.16l52-6.09a4.62,4.62,0,0,1,5.14,4.06h0a4.65,4.65,0,0,1-4.07,5.17Z"/><path d="M245.74,325.54a4.64,4.64,0,0,1-2.82,5.93h0a4.64,4.64,0,0,1-5.91-2.84L219.58,279.2a4.63,4.63,0,0,1,2.83-5.91h0a4.62,4.62,0,0,1,5.92,2.83Z"/><path d="M254.31,147.9a4.64,4.64,0,0,1-6.51.82h0a4.64,4.64,0,0,1-.8-6.51l32.27-41.31a4.62,4.62,0,0,1,6.5-.81h0a4.65,4.65,0,0,1,.79,6.53Z"/></svg>