<svg id="Capa_1" data-name="Capa 1" xmlns="http://www.w3.org/2000/svg" viewBox="0 0 400 400"><polygon points="167.71 359.17 168.81 356.67 207.68 269.43 169.92 269.33 202.07 194.65 205.17 194.65 183.41 259.66 223.96 259.96 167.71 359.17"/><path d="M312.46,122.23c.11-1.26.17-2.52.17-3.77a42.85,42.85,0,0,0-42.8-42.79,42.4,42.4,0,0,0-22.51,6.41c-4.16-24.36-26.49-42.6-52.63-41.17-24.88,1.24-44.58,19.45-47.82,42.78A41.51,41.51,0,0,0,133,81.3a42.87,42.87,0,0,0-42.8,42.8q0,.77.06,1.56c-12,3.26-29.11,10.16-29.08,34.62,0,18.15,15.12,33.75,35.68,34.73l6.31-9.72c-.75,0-1.59,0-2.19.07l-1.53,0c-15.59,0-28.3-11.27-28.31-25.11,0-16.54,9-21.88,25.65-26l3.74-1.42.11-3.77-.19-2a20.46,20.46,0,0,1-.27-2.94A32.86,32.86,0,0,1,133,91.26a32.17,32.17,0,0,1,16,4.33l7.56,4.22-.15-8.66C156,69.66,173.08,52,195.18,50.86l2.17,0c21.76,0,39.59,16.47,40.65,37.54,0,.76,0,1.51-.11,3.45l-.45,12.79,9-9.13a32.82,32.82,0,0,1,56.24,23A33.89,33.89,0,0,1,302,125l-1,5,5,.88c12.82,2.24,22.2,12.19,22.79,24.17s-7.68,25.7-20.26,29.65l3.32,9.28c15.87-5.29,27.77-21.69,26.88-39.42C338,139.49,327.44,126.74,312.46,122.23Z"/><path d="M129.71,298.35c0,1.2-1.37,2.16-3.07,2.16h0c-1.7,0-3.07-1-3.07-2.16V178.81c0-1.19,1.37-2.15,3.07-2.15h0c1.7,0,3.07,1,3.07,2.15Z"/><path d="M157.76,316.72c0,1.2-1.37,2.18-3.07,2.18h0c-1.7,0-3.07-1-3.07-2.18V197.19c0-1.21,1.37-2.18,3.07-2.18h0c1.7,0,3.07,1,3.07,2.18Z"/><path d="M233.61,328.13c0,1.2-1.38,2.16-3.07,2.16h0c-1.7,0-3.07-1-3.07-2.16V208.59c0-1.18,1.37-2.16,3.07-2.16h0c1.69,0,3.07,1,3.07,2.16Z"/><path d="M265.42,290.61c0,1.2-1.39,2.17-3.07,2.17h0c-1.68,0-3.06-1-3.06-2.17V171.07c0-1.17,1.38-2.15,3.06-2.15h0c1.68,0,3.07,1,3.07,2.15Z"/></svg>