<svg id="Capa_1" data-name="Capa 1" xmlns="http://www.w3.org/2000/svg" viewBox="0 0 400 400"><path d="M284.67,123.72a37.89,37.89,0,0,0-35.94,50,40.74,40.74,0,0,0-31.57,4.92c-4-23.46-25.5-41-50.67-39.63-24,1.18-42.94,18.72-46,41.21a39.39,39.39,0,0,0-13.33-2.33,41.28,41.28,0,0,0-41.23,41.22c0,.49,0,1,.07,1.5-11.52,3.13-28,9.79-28,33.33,0,17.08,13.89,31.76,33,33.32v.13l.49-.08c.3,0,.59.07.89.08l.13-.2c5.51-.54,25.28-1,43.8,14.25,12.57,10.36,27,13.15,41,14.37,3,.26,5.84.39,8.6.39,13.46,0,24.2-3.07,30.12-8.74,16.86-16.1,36.44-9.88,53.69-4.4,13.93,4.4,28.31,9,33.43-5.6a21.34,21.34,0,0,0,.63-12.91c13-6.39,22.32-20.67,21.54-36.08-.71-14.56-10.87-26.82-25.3-31.17.1-1.21.16-2.41.16-3.62a41.08,41.08,0,0,0-2.81-14.83,38,38,0,1,0,7.42-75.17Zm-14.2,90a32.1,32.1,0,0,1-.64,6.32l-1,4.83,4.84.84c12.35,2.17,21.37,11.74,21.94,23.27.54,10.74-6.34,22.75-17,27.49a14.61,14.61,0,0,0-15.29-3c-5.42,2.26-8.58,6.75-8.43,12,.11,4.4,2.52,8.31,5.85,9.51a6.3,6.3,0,0,0,7-2.08L262.9,289c-.44-.14-1.53-1.54-1.61-3.58-.08-1.86.65-4.4,4.51-6a8.33,8.33,0,0,1,8.78,2c3.45,3.24,4.35,8.47,2.42,14-2.8,8-9.2,6.77-25.47,1.62-17.07-5.43-40.45-12.84-60,5.89-5.73,5.48-18.32,8-33.75,6.59-12.89-1.13-26.33-3.47-37.37-12.87-14.25-12.13-28.15-15.25-37.58-15.67a47.44,47.44,0,0,1,33.08,3.92c15.5,7.85,34.18,15.25,49.62,15.25,8.76,0,16.48-2.38,21.95-8.43,12.09-13.33,26.57-11.84,39.29-10.55,11.36,1.18,23.1,2.36,27.12-10.44,2.18-6.95.64-13.47-4.18-17.88-5.05-4.6-13-6.11-19-3.6-6.79,2.84-7.42,7.48-7.36,9.34a10,10,0,0,0,6.72,8.81,7.79,7.79,0,0,0,8.81-2.19L234,261c-.2.23-.65.76-1.83.35a3.74,3.74,0,0,1-2.48-3c-.05-1.65,2.39-2.83,3.45-3.28,3.72-1.55,9-.52,12.22,2.43,2.1,1.92,4.22,5.42,2.38,11.25-2.33,7.5-8.28,7.24-20.35,6-12.85-1.31-30.42-3.12-44.67,12.6-13.1,14.44-45.68,1-63.94-8.24a54.71,54.71,0,0,0-47.07-1.24,29.13,29.13,0,0,1-13-4.51c7.71-4.84,31.12-16.78,56.87-2.68,15.53,8.5,28.74,11.4,39.54,11.4,15.75,0,26.35-6.17,31.47-10.07,7.92-6,8.27-16.81,4.58-23.91C188,242,180.75,236.61,170.09,240a11.18,11.18,0,0,0-7.76,13.51c1.28,5.24,6.37,9.89,14.87,8.38l-1.1-6.29c-4.71.79-7-1.33-7.56-3.61a4.86,4.86,0,0,1,3.48-5.9c8.39-2.69,12.22,2.62,13.47,5,2.51,4.86,2.16,12.13-2.78,15.89-7.63,5.81-29.16,17.27-64.07-1.87-30.53-16.7-58.2-.59-65,4A22.46,22.46,0,0,1,47.54,254c0-15.89,8.66-21.06,24.68-25l3.62-1.37.1-3.64-.18-2a19.82,19.82,0,0,1-.27-2.81,31.66,31.66,0,0,1,31.63-31.62,31.08,31.08,0,0,1,15.34,4.15l7.29,4.08-.14-8.34c-.35-20.7,16-37.74,37.35-38.78l2.08-.07c21,0,38.14,15.88,39.15,36.18a32.17,32.17,0,0,1-.1,3.3l-.43,12.33,8.65-8.81a31.48,31.48,0,0,1,41.65-3,38.21,38.21,0,0,0,3.39,3A31.52,31.52,0,0,1,270.47,213.72Zm14.2-20.43a31.66,31.66,0,0,1-11.41-2.16,41.31,41.31,0,0,0-16.38-14.4,31.61,31.61,0,1,1,27.79,16.56Z"/><path d="M251,132a2.64,2.64,0,0,0,4-3.48L235.32,106a2.65,2.65,0,0,0-4,3.49Z"/><path d="M284.81,119a2.64,2.64,0,0,0,2.62-2.66l-.21-29.91a2.65,2.65,0,1,0-5.29,0l.21,29.91A2.65,2.65,0,0,0,284.81,119Z"/><path d="M209.2,157.26,239,159.7a2.65,2.65,0,0,0,.42-5.29L209.63,152a2.67,2.67,0,0,0-2.86,2.44A2.63,2.63,0,0,0,209.2,157.26Z"/><path d="M352.88,197.58l-26.46-13.91a2.65,2.65,0,1,0-2.47,4.68l26.46,13.93a2.65,2.65,0,0,0,2.47-4.7Z"/><path d="M359.09,147.34l-29.69,3.48a2.65,2.65,0,1,0,.61,5.26l29.71-3.47a2.65,2.65,0,0,0-.63-5.27Z"/><path d="M300.57,202.4a2.64,2.64,0,0,0-5,1.76l9.94,28.21a2.65,2.65,0,1,0,5-1.76Z"/><path d="M315.41,129.21l18.41-23.56a2.65,2.65,0,1,0-4.17-3.26L311.23,126a2.65,2.65,0,1,0,4.18,3.25Z"/></svg>