<svg id="Capa_1" data-name="Capa 1" xmlns="http://www.w3.org/2000/svg" viewBox="0 0 400 400"><path d="M346.53,191.27c-6.24-5.87-14.94-7.7-22.27-4.65-7.72,3.21-12.24,9.62-12,17.11.14,6.27,3.59,11.84,8.33,13.54a9,9,0,0,0,10-2.94l-6.9-5.62c-.65-.21-2.19-2.21-2.31-5.13-.11-2.63,1-6.25,6.45-8.57,3.94-1.66,8.87-.53,12.5,2.87,4.91,4.65,6.21,12.1,3.44,20-4,11.36-13.11,9.64-36.3,2.31-24.33-7.73-57.67-18.31-85.56,8.38-8.16,7.81-26.1,11.37-48.1,9.41-18.38-1.61-37.55-5-53.26-18.36-16.46-14-32.58-19.54-45.27-21.47A67.48,67.48,0,0,1,115.58,205c22.12,11.21,48.74,21.78,70.74,21.78,12.49,0,23.48-3.42,31.29-12,17.23-19,37.87-16.88,56-15,16.19,1.69,32.92,3.36,38.64-14.87,3.11-9.93.92-19.2-5.95-25.49-7.19-6.56-18.59-8.71-27.11-5.13-9.69,4-10.57,10.65-10.49,13.31.14,5.45,4.08,10.58,9.56,12.57a11.23,11.23,0,0,0,12.59-3.13L284,171c-.32.34-.94,1.08-2.62.49-1.88-.66-3.5-2.59-3.54-4.22-.06-2.34,3.42-4,4.91-4.66,5.32-2.21,12.82-.74,17.43,3.46,3,2.73,6,7.73,3.41,16-3.34,10.69-11.82,10.3-29,8.54-18.31-1.85-43.36-4.46-63.67,18-18.67,20.58-65.1,1.48-91.14-11.76a76.61,76.61,0,0,0-29.54-8.27,60.52,60.52,0,0,1,29.26,6.26c18.5,9,34,11.61,46.53,11,18.28-.87,30.23-8.62,36-13.44,8.85-7.41,8.64-19.95,4-28-4.09-7-12.77-12.78-24.93-8.26a13,13,0,0,0-8.24,16.1c1.76,6,7.91,11.13,17.72,8.88l-1.62-7.22c-5.42,1.17-8.21-1.16-9-3.79a5.63,5.63,0,0,1,3.71-7c9.58-3.61,14.34,2.34,15.89,5.05,3.22,5.5,3.22,14-2.31,18.62-8.52,7.13-32.85,21.66-74.47,1.41s-76.65,9.31-77,9.62l.48.55-.48.28,4.34,7v.94c1.21-.34,34.11-5.06,64.55,20C132.5,241.32,153.11,245.25,173,247c4.22.38,8.31.54,12.25.54,19.19,0,34.49-4.35,42.95-12.45,24-22.94,51.92-14.05,76.51-6.26,19.86,6.26,40.37,12.82,47.66-8C356.32,209.52,354.16,198.43,346.53,191.27Z"/></svg>